# xmcd
#
# Track frame offsets: 
#        150
#        46760
#        72345
#        85670
#        112170
#        135537
#        149205
#        182407
#        204452
#        224405
#        241762
#        275750
#
# Disc length: 3957 seconds
#
# Revision: 0
# Processed by: cddbd v1.5.1PL0 Copyright (c) Steve Scherf et al.
# Submitted via: ExactAudioCopy v0.95a5
#
DISCID=b80f730c
DTITLE=Κακλή Μαρίνα - Ελπίδας φως
DYEAR=1998
DGENRE=Folk
TTITLE0=Ελπίδας φως
TTITLE1=Ξαναγεννήθηκα
TTITLE2=Σα ντο γκαλό ψαρά
TTITLE3=Με τη γλυκειά σου αθιβολή
TTITLE4=Όσο βαρούν τα σίδερα
TTITLE5=Πριν κοιμηθλώ
TTITLE6=Είσα για μένα ξαστεριά
TTITLE7=Ασημένιο μου φεγγάρι
TTITLE8=Γραμβούσα
TTITLE9=Τα βάσανα
TTITLE10=Δακρύζω με παράπονο
TTITLE11=Καταλητή τση νιότης μου
EXTD=
EXTT0=
EXTT1=
EXTT2=
EXTT3=
EXTT4=
EXTT5=
EXTT6=
EXTT7=
EXTT8=
EXTT9=
EXTT10=
EXTT11=
PLAYORDER=
